HIERARCHY
ROOT Hips
{
	OFFSET 0.000000 0.000000 0.000000
	CHANNELS 6 Xposition Yposition Zposition Zrotation Yrotation Xrotation 
	JOINT LHipJoint
	{
		OFFSET 0.000000 0.000000 0.000000
		CHANNELS 3 Zrotation Yrotation Xrotation
		JOINT LeftUpLeg
		{
			OFFSET 1.363060 -1.794630 0.839290
			CHANNELS 3 Zrotation Yrotation Xrotation
			JOINT LeftLeg
			{
				OFFSET 2.448110 -6.726130 0.000000
				CHANNELS 3 Zrotation Yrotation Xrotation
				JOINT LeftFoot
				{
					OFFSET 2.562200 -7.039590 0.000000
					CHANNELS 3 Zrotation Yrotation Xrotation
					JOINT LeftToeBase
					{
						OFFSET 0.157640 -0.433110 2.322550
						CHANNELS 3 Zrotation Yrotation Xrotation
						End Site
						{
							OFFSET 0.000000 0.000000 0.000000
						}
					}
				}
			}
		}
	}
	JOINT RHipJoint
	{
		OFFSET 0.000000 0.000000 0.000000
		CHANNELS 3 Zrotation Yrotation Xrotation
		JOINT RightUpLeg
		{
			OFFSET -1.305520 -1.794630 0.839290
			CHANNELS 3 Zrotation Yrotation Xrotation
			JOINT RightLeg
			{
				OFFSET -2.542530 -6.985550 0.000000
				CHANNELS 3 Zrotation Yrotation Xrotation
				JOINT RightFoot
				{
					OFFSET -2.568260 -7.056230 0.000000
					CHANNELS 3 Zrotation Yrotation Xrotation
					JOINT RightToeBase
					{
						OFFSET -0.164730 -0.452590 2.363150
						CHANNELS 3 Zrotation Yrotation Xrotation
						End Site
						{
							OFFSET 0.000000 0.000000 0.000000
						}
					}
				}
			}
		}
	}
}
MOTION
Frames: 16
Frame Time: 0.008333
24.312417 16.469194 2.330589 175.605562 -85.357514 -147.526578 -9.084954 0.446679 6.176837 -9.892891 -8.769367 -60.030129 -1.834761 1.359857 36.205088 1.420460 4.270296 -10.012728 0.086400 0.000000 -16.601800 10.752336 -5.085182 1.245400 4.964104 -7.927308 -7.470012 0.867546 -1.460389 21.858367 -0.083728 7.211173 25.699951 3.904800 -0.000000 -89.641700
24.106225 16.434508 2.334608 173.486460 -85.525494 -145.540034 -9.059406 0.456485 6.082392 -10.511982 -8.482031 -59.974062 -1.810671 1.491912 38.026142 1.401601 4.009029 -10.815396 -0.025300 0.000000 -16.398400 10.953503 -5.154329 1.285063 4.534738 -8.693267 -8.200746 0.734233 -1.562443 23.796763 -0.210116 7.533142 27.002772 4.293400 0.000000 -87.843200
23.903230 16.404489 2.338589 170.914859 -85.739824 -143.096725 -8.996526 0.471185 5.988219 -11.148833 -8.235256 -59.780895 -1.808149 1.586110 39.633903 1.398866 3.757841 -11.826717 -0.154000 -0.000001 -16.421100 11.179588 -5.198685 1.319385 4.117519 -9.427177 -9.002919 0.604418 -1.658877 25.829406 -0.354181 7.658859 28.265522 4.580000 -0.000000 -85.490899
23.703345 16.379996 2.343326 168.089870 -85.976923 -140.404135 -8.902402 0.497842 5.895718 -11.772860 -8.025240 -59.430465 -1.824701 1.643984 40.992930 1.412852 3.527818 -12.991363 -0.293400 -0.000000 -16.663100 11.419473 -5.213052 1.345192 3.731106 -10.100509 -9.838840 0.479826 -1.748035 27.914321 -0.511327 7.524752 29.435092 4.708000 0.000000 -82.674100
23.506313 16.361592 2.349149 165.040527 -86.220422 -137.499583 -8.778809 0.540885 5.806055 -12.371364 -7.860338 -58.901078 -1.857280 1.666129 42.075024 1.444263 3.337076 -14.241525 -0.438300 -0.000000 -17.089700 11.670313 -5.194683 1.357477 3.370368 -10.709745 -10.681822 0.361807 -1.831076 30.021295 -0.676761 7.092712 30.441387 4.633700 0.000001 -79.525600
23.312401 16.349667 2.356589 161.908403 -86.450642 -134.532692 -8.635929 0.602560 5.720973 -12.925528 -7.739399 -58.187701 -1.901240 1.656530 42.870766 1.491914 3.199007 -15.508705 -0.584700 -0.000000 -17.640200 11.919954 -5.143063 1.353654 3.039664 -11.241079 -11.506112 0.249599 -1.909096 32.118160 -0.845777 6.329410 31.212517 4.319199 0.000000 -76.217600
23.121025 16.344394 2.366440 158.950377 -86.652382 -131.759833 -8.493695 0.679825 5.643657 -13.408694 -7.653875 -57.305431 -1.950636 1.621330 43.388660 1.552475 3.120782 -16.729834 -0.729400 -0.000000 -18.234799 12.146575 -5.062621 1.335027 2.756401 -11.671272 -12.294384 0.141464 -1.983158 34.174923 -1.014559 5.214469 31.681747 3.742400 0.000000 -72.929400
22.931989 16.345723 2.378695 156.186423 -86.821929 -129.200180 -8.358236 0.768461 5.575760 -13.818936 -7.611668 -56.262692 -2.000578 1.563390 43.638636 1.623484 3.115753 -17.848639 -0.870900 -0.000000 -18.781800 12.346427 -4.958370 1.302162 2.511966 -12.000968 -13.042567 0.036610 -2.056320 36.174394 -1.180632 3.773732 31.786863 2.921700 0.000001 -69.806500
22.744547 16.353468 2.393612 153.749687 -86.959180 -126.980074 -8.241911 0.861708 5.519632 -14.146035 -7.610024 -55.086226 -2.046160 1.487379 43.646031 1.700958 3.186891 -18.825594 -1.008000 -0.000000 -19.201200 12.508708 -4.838176 1.259481 2.315601 -12.219117 -13.753879 -0.065698 -2.130668 38.101549 -1.342044 2.052068 31.482881 1.900100 -0.000000 -66.940400
22.558734 16.367313 2.411192 151.708362 -87.068886 -125.160836 -8.151576 0.953417 5.476885 -14.388086 -7.647132 -53.804836 -2.084039 1.396967 43.438201 1.781171 3.332754 -19.636443 -1.139600 -0.000001 -19.437700 12.629041 -4.709661 1.212140 2.172001 -12.321364 -14.438086 -0.165236 -2.207985 39.945532 -1.497325 0.124941 30.745094 0.750400 -0.000001 -64.354401
22.373789 16.386824 2.431295 150.100669 -87.158303 -123.770002 -8.090693 1.039337 5.448334 -14.548526 -7.717469 -52.448331 -2.112635 1.295335 43.044512 1.860721 3.545119 -20.273862 -1.264500 -0.000001 -19.473000 12.706892 -4.579757 1.166302 2.084671 -12.306601 -15.109564 -0.260958 -2.289018 41.698304 -1.645148 -1.912427 29.572734 -0.436200 0.000000 -62.015100
22.189631 16.411484 2.453645 148.943246 -87.234557 -122.814205 -8.060139 1.117115 5.433887 -14.634381 -7.811506 -51.044951 -2.132331 1.185085 42.491017 1.936588 3.808890 -20.745366 -1.380900 -0.000000 -19.326200 12.744006 -4.453983 1.128170 2.055945 -12.176757 -15.782976 -0.351169 -2.373260 43.352200 -1.784331 -3.957628 27.993889 -1.564900 -0.000001 -59.852700
22.005860 16.440843 2.477965 148.252215 -87.304688 -122.302689 -8.060303 1.185508 5.432410 -14.653425 -7.914768 -49.620144 -2.144978 1.068450 41.800541 2.005837 4.102153 -21.069939 -1.486300 -0.000001 -19.046300 12.742015 -4.336380 1.103549 2.088923 -11.935652 -16.472989 -0.433720 -2.459036 44.899331 -1.913737 -5.914651 26.064891 -2.553100 0.000001 -57.784400
21.822446 16.474384 2.503674 147.962841 -87.372044 -122.167309 -8.085589 1.246716 5.440094 -14.623367 -8.012681 -48.182607 -2.154230 0.946325 40.985528 2.066571 4.403089 -21.273254 -1.579100 -0.000000 -18.696900 12.708862 -4.227634 1.095248 2.172724 -11.596945 -17.185589 -0.506503 -2.544142 46.332219 -2.031943 -7.697892 23.864184 -3.338600 0.000000 -55.738200
21.639289 16.511605 2.530718 148.147307 -87.442492 -122.473360 -8.140125 1.299937 5.456169 -14.544454 -8.084587 -46.754755 -2.162848 0.820146 40.060569 2.115761 4.683195 -21.382538 -1.656200 0.000000 -18.356500 12.641281 -4.130801 1.108095 2.316632 -11.165866 -17.934244 -0.567444 -2.625375 47.644332 -2.137272 -9.252116 21.483814 -3.894000 -0.000001 -53.585300
21.456620 16.551981 2.558441 148.678549 -87.518119 -123.105360 -8.214415 1.348813 5.471607 -14.438206 -8.115086 -45.316472 -2.175368 0.689295 39.024714 2.151952 4.921496 -21.426097 -1.717300 0.000000 -18.067900 12.550822 -4.042399 1.138086 2.498685 -10.667286 -18.701924 -0.615598 -2.700172 48.820089 -2.229202 -10.543825 19.045639 -4.222300 -0.000000 -51.568600
